<svg version="1.1" xmlns="http://www.w3.org/2000/svg" width="366" height="512" viewBox="0 0 366 512"><title>child</title><path d="M339.428 156.571l-83.428 83.429v235.428c0 17.714-14.286 32-32 32s-32-14.286-32-32v-109.714h-18.286v109.714c0 17.714-14.286 32-32 32s-32-14.286-32-32v-235.429l-83.428-83.429c-10.572-10.857-10.572-28 0-38.857 10.857-10.572 28-10.572 38.857 0l65.143 65.143h105.143l65.143-65.143c10.857-10.572 28-10.572 38.857 0 10.572 10.857 10.572 28 0 38.857zM246.857 109.715c0 35.428-28.571 64-64 64s-64-28.572-64-64 28.571-64 64-64 64 28.572 64 64z"></path></svg>