<svg version="1.1" xmlns="http://www.w3.org/2000/svg" width="292" height="512" viewBox="0 0 292 512"><title>dollar</title><path d="M279.428 338.572c0 58.286-41.714 104.286-102.286 114.286v50c0 5.143-4 9.143-9.143 9.143h-38.571c-4.857 0-9.143-4-9.143-9.143v-50c-66.857-9.428-103.428-49.428-104.857-51.143-2.857-3.428-3.143-8.286-0.572-11.714l29.428-38.572c1.428-2 4-3.143 6.572-3.428s5.143 0.572 6.857 2.572c0.572 0.286 40.572 38.572 91.143 38.572 28 0 58.286-14.857 58.286-47.143 0-27.428-33.714-40.857-72.286-56.286-51.428-20.286-115.428-46-115.428-117.714 0-52.572 41.143-96 100.857-107.428v-51.428c0-5.143 4.285-9.143 9.143-9.143h38.572c5.143 0 9.143 4 9.143 9.143v50.285c58 6.572 88.857 38 90 39.143 2.857 3.143 3.428 7.428 1.428 10.857l-23.143 41.715c-1.429 2.571-3.714 4.286-6.571 4.571-2.857 0.571-5.428-0.286-7.714-2-0.286-0.286-34.857-30.857-77.714-30.857-36.285 0-61.428 18-61.428 44 0 30.285 34.857 43.715 75.428 59.429 52.572 20.286 112 43.428 112 112.286z"></path></svg>