<svg version="1.1" xmlns="http://www.w3.org/2000/svg" width="439" height="512" viewBox="0 0 439 512"><title>smile-o</title><path d="M324 307.143c-14.286 46-56.286 76.857-104.572 76.857s-90.286-30.857-104.572-76.857c-3.143-9.714 2.285-19.714 12-22.857 9.428-3.143 19.715 2.286 22.857 12 9.428 30.572 37.714 51.143 69.714 51.143s60.286-20.572 69.714-51.143c3.143-9.714 13.428-15.143 23.143-12 9.428 3.143 14.857 13.143 11.714 22.857zM182.857 182.857c0 20.285-16.285 36.571-36.571 36.571s-36.572-16.286-36.572-36.572 16.285-36.572 36.572-36.572 36.572 16.286 36.572 36.572zM329.143 182.857c0 20.285-16.286 36.571-36.572 36.571s-36.572-16.286-36.572-36.572 16.286-36.572 36.572-36.572 36.572 16.286 36.572 36.572zM402.286 256c0-100.857-82-182.857-182.857-182.857s-182.857 82-182.857 182.857 82 182.857 182.857 182.857 182.857-82 182.857-182.857zM438.857 256c0 121.143-98.286 219.428-219.429 219.428s-219.429-98.286-219.429-219.429 98.285-219.429 219.429-219.429 219.429 98.286 219.429 219.429z"></path></svg>